{
  "accessors": [
    {
      "bufferView": 2,
      "componentType": 5126,
      "count": 3846,
      "max": [
        1.2681807279586792,
        1.2681806087493896,
        3.783607244491577
      ],
      "min": [
        -1.2681804895401,
        -1.2681806087493896,
        -0.9808710813522339
      ],
      "type": "VEC3"
    },
    {
      "bufferView": 2,
      "byteOffset": 46152,
      "componentType": 5126,
      "count": 3846,
      "max": [
        0.9977924823760986,
        0.9999206066131592,
        1.0
      ],
      "min": [
        -0.9977924823760986,
        -0.9973117113113403,
        -1.0
      ],
      "type": "VEC3"
    },
    {
      "bufferView": 1,
      "componentType": 5126,
      "count": 3846,
      "max": [
        0.8669922351837158,
        0.9813944101333618
      ],
      "min": [
        0.18913769721984863,
        -0.0017328858375549316
      ],
      "type": "VEC2"
    },
    {
      "bufferView": 0,
      "componentType": 5125,
      "count": 19968,
      "type": "SCALAR"
    },
    {
      "bufferView": 2,
      "byteOffset": 92304,
      "componentType": 5126,
      "count": 11450,
      "max": [
        13.007315635681152,
        13.36819076538086,
        1.1787185668945313
      ],
      "min": [
        -13.339336395263672,
        -12.985895156860352,
        -19.36220932006836
      ],
      "type": "VEC3"
    },
    {
      "bufferView": 2,
      "byteOffset": 229704,
      "componentType": 5126,
      "count": 11450,
      "max": [
        0.999991774559021,
        1.0,
        0.9999305009841919
      ],
      "min": [
        -0.999510645866394,
        -0.9992414712905884,
        -0.999992847442627
      ],
      "type": "VEC3"
    },
    {
      "bufferView": 1,
      "byteOffset": 30768,
      "componentType": 5126,
      "count": 11450,
      "max": [
        1.9354443550109863,
        1.9354439973831177
      ],
      "min": [
        -0.9354438781738281,
        -0.9354437589645386
      ],
      "type": "VEC2"
    },
    {
      "bufferView": 0,
      "byteOffset": 79872,
      "componentType": 5125,
      "count": 64320,
      "type": "SCALAR"
    }
  ],
  "asset": {
    "extras": {
      "author": "Levrints_Yurii (https://sketchfab.com/Levrints_Yurii)",
      "license": "CC-BY-4.0 (http://creativecommons.org/licenses/by/4.0/)",
      "source": "https://sketchfab.com/3d-models/pumpkin-9b1dd1cbe57e4bf7a8a4b1386250f2d4",
      "title": "Pumpkin"
    },
    "generator": "Sketchfab-11.92.0",
    "version": "2.0"
  },
  "bufferViews": [
    {
      "buffer": 0,
      "byteLength": 337152,
      "name": "floatBufferViews",
      "target": 34963
    },
    {
      "buffer": 0,
      "byteLength": 122368,
      "byteOffset": 337152,
      "byteStride": 8,
      "name": "floatBufferViews",
      "target": 34962
    },
    {
      "buffer": 0,
      "byteLength": 367104,
      "byteOffset": 459520,
      "byteStride": 12,
      "name": "floatBufferViews",
      "target": 34962
    }
  ],
  "buffers": [
    {
      "byteLength": 826624,
      "uri": "scene.bin"
    }
  ],
  "images": [
    {
      "uri": "textures/Material.002_baseColor.png"
    },
    {
      "uri": "textures/Material.001_baseColor.png"
    }
  ],
  "materials": [
    {
      "doubleSided": true,
      "name": "Material.002",
      "pbrMetallicRoughness": {
        "baseColorTexture": {
          "index": 0
        },
        "metallicFactor": 0.0,
        "roughnessFactor": 0.8211145618000169
      }
    },
    {
      "doubleSided": true,
      "name": "Material.001",
      "pbrMetallicRoughness": {
        "baseColorTexture": {
          "index": 1
        },
        "metallicFactor": 0.0,
        "roughnessFactor": 0.940450428010294
      }
    }
  ],
  "meshes": [
    {
      "name": "Pumpkin_Material.002_0",
      "primitives": [
        {
          "attributes": {
            "NORMAL": 1,
            "POSITION": 0,
            "TEXCOORD_0": 2
          },
          "indices": 3,
          "material": 0,
          "mode": 4
        }
      ]
    },
    {
      "name": "Pumpkin_Material.001_0",
      "primitives": [
        {
          "attributes": {
            "NORMAL": 5,
            "POSITION": 4,
            "TEXCOORD_0": 6
          },
          "indices": 7,
          "material": 1,
          "mode": 4
        }
      ]
    }
  ],
  "nodes": [
    {
      "children": [
        1
      ],
      "matrix": [
        1.0,
        0.0,
        0.0,
        0.0,
        0.0,
        2.220446049250313e-16,
        -1.0,
        0.0,
        0.0,
        1.0,
        2.220446049250313e-16,
        0.0,
        0.0,
        0.0,
        0.0,
        1.0
      ],
      "name": "Sketchfab_model"
    },
    {
      "children": [
        2
      ],
      "matrix": [
        0.009999999776482582,
        0.0,
        0.0,
        0.0,
        0.0,
        0.0,
        0.009999999776482582,
        0.0,
        0.0,
        -0.009999999776482582,
        0.0,
        0.0,
        0.0,
        0.0,
        0.0,
        1.0
      ],
      "name": "pumpkin.fbx"
    },
    {
      "children": [
        3
      ],
      "name": "RootNode"
    },
    {
      "children": [
        4,
        5
      ],
      "matrix": [
        7.3389129638671875,
        0.0,
        0.0,
        0.0,
        0.0,
        -1.1956606860707613e-06,
        -7.338912963867091,
        0.0,
        0.0,
        7.338912963867091,
        -1.1956606860707613e-06,
        0.0,
        0.0,
        58.26792907714844,
        -5.9722900390625,
        1.0
      ],
      "name": "Pumpkin"
    },
    {
      "mesh": 0,
      "name": "Pumpkin_Material.002_0"
    },
    {
      "mesh": 1,
      "name": "Pumpkin_Material.001_0"
    }
  ],
  "samplers": [
    {
      "magFilter": 9729,
      "minFilter": 9987,
      "wrapS": 10497,
      "wrapT": 10497
    }
  ],
  "scene": 0,
  "scenes": [
    {
      "name": "Sketchfab_Scene",
      "nodes": [
        0
      ]
    }
  ],
  "textures": [
    {
      "sampler": 0,
      "source": 0
    },
    {
      "sampler": 0,
      "source": 1
    }
  ]
}
